<?xml version="1.0" encoding="UTF-8"?>
<svg id="Layer_1" xmlns="http://www.w3.org/2000/svg" version="1.1" viewBox="0 0 72.14 28.06">
  <!-- Generator: Adobe Illustrator 29.4.0, SVG Export Plug-In . SVG Version: 2.1.0 Build 152)  -->
  <defs>
    <style>
      .st0 {
        fill: blue;
        stroke: blue;
        stroke-miterlimit: 10;
        stroke-width: .5px;
      }
    </style>
  </defs>
  <path class="st0" d="M6.22,12.8l-.14.14h64.56c.48.25.72.57.72.96s-.24.71-.72.96H6.08l.14.14c3.3,2.53,5.46,5.77,6.48,9.7h0c.19.71.29,1.11.29,1.2h0c0,.35-.34.53-1.01.53h0c-.38,0-.63-.04-.74-.12s-.2-.28-.26-.6h0c-.07-.23-.13-.5-.2-.82h0c-.57-2.33-1.67-4.41-3.28-6.24-1.62-1.82-3.57-3.18-5.84-4.08h0c-.48-.19-.77-.37-.86-.53h0c0-.41.29-.68.86-.81h0c2.27-.9,4.22-2.26,5.84-4.08,1.61-1.83,2.71-3.91,3.28-6.24h0c.03-.1.07-.24.1-.43.03-.19.06-.32.07-.39.02-.06.05-.16.1-.29s.1-.21.17-.26c.06-.05.15-.09.28-.12s.29-.05.48-.05h0c.67,0,1.01.18,1.01.53h0c0,.09-.1.49-.29,1.2h0c-.96,3.81-3.12,7.04-6.48,9.7h0Z"/>
</svg>